<svg width="47" height="48" viewBox="0 0 47 48" fill="none" xmlns="http://www.w3.org/2000/svg">
<path d="M23.5 47.002C36.4787 47.002 47 36.4802 47 23.501C47 10.5218 36.4787 0 23.5 0C10.5213 0 0 10.5218 0 23.501C0 36.4802 10.5213 47.002 23.5 47.002Z" fill="#1E1F23"/>
<path d="M18.5117 24.8528C18.4037 24.8528 18.2985 24.796 18.2417 24.6945C18.1582 24.5454 18.2117 24.3575 18.3603 24.274C18.8279 24.0123 19.277 23.7058 19.6946 23.3633C20.6459 22.5838 21.4157 21.6408 21.9829 20.5617C22.0623 20.4108 22.2492 20.3526 22.4002 20.432C22.5511 20.5114 22.6092 20.6983 22.5299 20.8493C21.9239 22.0022 21.1019 23.0089 20.0865 23.8411C19.6406 24.2066 19.1611 24.5338 18.6622 24.8131C18.6147 24.8399 18.5625 24.8523 18.5117 24.8523V24.8528Z" fill="#FFFDEA"/>
<path d="M29.0135 22.2773C28.9927 22.2773 28.9719 22.2755 28.9507 22.2709C28.3904 22.1555 27.8347 21.9889 27.2993 21.7752C26.0795 21.2887 24.9917 20.5779 24.0654 19.6626C23.944 19.5426 23.9431 19.3469 24.0626 19.2255C24.1826 19.1041 24.3783 19.1032 24.4997 19.2228C25.3669 20.0799 26.386 20.7454 27.5283 21.201C28.0304 21.4013 28.551 21.5573 29.0758 21.6653C29.2429 21.6999 29.3504 21.8629 29.3163 22.0304C29.2863 22.1767 29.1575 22.2769 29.0139 22.2769L29.0135 22.2773Z" fill="#FFFDEA"/>
<path d="M9.38998 29.7203C8.95983 29.7203 8.52968 29.6917 8.10045 29.6335C7.93153 29.6109 7.81291 29.4554 7.83553 29.286C7.85814 29.1171 8.01368 28.9984 8.18307 29.0211C9.31198 29.1729 10.4501 29.1111 11.5666 28.8369C12.761 28.5438 13.8623 28.0255 14.8393 27.2967C14.9759 27.1947 15.1698 27.2228 15.2718 27.3595C15.3738 27.4961 15.3456 27.6899 15.209 27.7919C14.165 28.5706 12.989 29.124 11.7138 29.4369C10.9463 29.6252 10.1686 29.7198 9.38998 29.7198V29.7203Z" fill="#FFFDEA"/>
<path d="M36.9325 24.1396C35.6194 24.1396 34.3456 23.8825 33.1461 23.3748C32.9892 23.3083 32.9153 23.1269 32.9818 22.97C33.0482 22.8131 33.2296 22.7392 33.3865 22.8057C34.5094 23.2806 35.7025 23.5216 36.9325 23.5216C38.0822 23.5216 39.2023 23.3102 40.2625 22.8938C40.4213 22.8315 40.6008 22.9095 40.6631 23.0683C40.7254 23.2271 40.6474 23.4066 40.4886 23.4689C39.3565 23.9139 38.1597 24.1396 36.9325 24.1396Z" fill="#FFFDEA"/>
<path d="M31.083 33.5379C30.9981 33.5379 30.9118 33.5352 30.825 33.5292C30.2513 33.4908 29.781 33.3307 29.6504 33.2827C29.26 33.1387 28.8935 32.9365 28.5607 32.6808C26.8914 31.3991 26.4483 29.0733 27.5297 27.2714L27.5394 27.2562L27.9386 26.6723L28.3323 26.0718L28.8829 25.2664C30.2296 23.1945 30.9418 20.787 30.9418 18.3043C30.9418 15.6434 30.1327 13.0924 28.6018 10.9277C28.5035 10.7883 28.5363 10.5954 28.6757 10.4971C28.815 10.3988 29.008 10.4316 29.1063 10.5709C30.711 12.8409 31.5593 15.5147 31.5593 18.3043C31.5593 20.9084 30.8121 23.4331 29.3984 25.6066L29.3943 25.6126L28.8432 26.4184L28.4495 27.0189L28.054 27.5972C27.1397 29.1291 27.5181 31.1023 28.936 32.1911C29.2193 32.409 29.5313 32.5811 29.8632 32.7034C29.9421 32.7325 30.3616 32.8793 30.8652 32.913C31.8709 32.9804 32.7478 32.5627 33.1807 32.3079C33.3279 32.2216 33.5172 32.2705 33.6035 32.4177C33.6898 32.565 33.6409 32.7542 33.4936 32.8405C33.0358 33.1096 32.1409 33.5379 31.0816 33.5379H31.083Z" fill="#FFFDEA"/>
<path d="M19.2826 38.2305C16.9481 38.2305 15.4998 36.3746 15.341 36.1613C15.239 36.0243 15.2677 35.8309 15.4047 35.7289C15.5418 35.6269 15.7352 35.6555 15.8367 35.7926C15.9775 35.9818 17.273 37.642 19.3375 37.6125C20.7216 37.5922 21.719 36.8288 21.905 36.6755C22.2244 36.4129 22.5027 36.1023 22.7321 35.7529C23.9247 33.9362 23.4982 31.4969 21.7619 30.1957L21.5898 30.0794L20.5107 29.3428C16.8807 26.8333 14.7152 22.707 14.7152 18.3033C14.7152 15.5141 15.5635 12.8399 17.1683 10.57C17.2666 10.4306 17.4595 10.3978 17.5989 10.4961C17.7383 10.5944 17.771 10.7874 17.6727 10.9267C16.1418 13.0914 15.3327 15.6425 15.3327 18.3033C15.3327 22.5044 17.3986 26.4405 20.8587 28.8328L21.0299 28.9482L22.1252 29.6959C24.1278 31.1909 24.6211 34.0003 23.2481 36.0912C22.9845 36.4927 22.6642 36.8495 22.2969 37.1518C22.0832 37.3277 20.9362 38.206 19.3458 38.2291C19.3246 38.2291 19.3029 38.2296 19.2812 38.2296L19.2826 38.2305Z" fill="#FFFDEA"/>
</svg>
