<svg width="56" height="57" viewBox="0 0 56 57" fill="none" xmlns="http://www.w3.org/2000/svg">
<path d="M27.6564 56.057C42.9306 56.057 55.3128 43.6652 55.3128 28.3791C55.3128 13.093 42.9306 0.701172 27.6564 0.701172C12.3822 0.701172 0 13.093 0 28.3791C0 43.6652 12.3822 56.057 27.6564 56.057Z" fill="#0037FF"/>
<path d="M21.7891 30.2731C21.561 30.2731 21.3393 30.1529 21.2198 29.9393C21.0439 29.6251 21.1563 29.2272 21.4702 29.0516C22.0042 28.7526 22.5169 28.402 22.9944 28.0106C24.0807 27.1192 24.9601 26.0423 25.6075 24.8089C25.7748 24.4898 26.1692 24.3675 26.488 24.5349C26.8069 24.7024 26.9291 25.097 26.7618 25.4161C26.0323 26.805 25.0432 28.0172 23.8211 29.0195C23.2844 29.4599 22.7081 29.8534 22.1074 30.1899C22.0069 30.2464 21.8972 30.2731 21.7896 30.2731H21.7891Z" fill="#FFFDEA"/>
<path d="M34.1158 27.2478C34.0723 27.2478 34.0278 27.2434 33.9838 27.2342C33.3091 27.095 32.6405 26.8944 31.9963 26.6373C30.5287 26.0519 29.2191 25.1957 28.1045 24.0928C27.8487 23.8395 27.846 23.4263 28.0991 23.1703C28.3522 22.9143 28.765 22.9116 29.0209 23.1649C30.011 24.1444 31.1745 24.9049 32.4792 25.4256C33.0522 25.6545 33.647 25.8328 34.2467 25.9567C34.5992 26.0296 34.8262 26.3742 34.7534 26.727C34.6899 27.0352 34.4183 27.2478 34.1158 27.2478Z" fill="#FFFDEA"/>
<path d="M11.0827 35.9901C10.5651 35.9901 10.0469 35.9553 9.53035 35.8858C9.17349 35.8379 8.92309 35.5096 8.97143 35.1525C9.01977 34.7953 9.34784 34.5447 9.70416 34.5931C10.9931 34.7665 12.2934 34.6958 13.5682 34.3827C14.9321 34.0479 16.1901 33.4554 17.3058 32.6226C17.5942 32.4073 18.0026 32.4666 18.2177 32.7558C18.4328 33.045 18.3736 33.4532 18.0847 33.6685C16.8283 34.6061 15.4128 35.2731 13.8784 35.6498C12.955 35.8765 12.0191 35.9907 11.0822 35.9907L11.0827 35.9901Z" fill="#FFFDEA"/>
<path d="M43.4098 29.436C41.8297 29.436 40.2964 29.1262 38.8526 28.5152C38.5213 28.3749 38.366 27.9923 38.5061 27.6601C38.6462 27.3285 39.0286 27.1731 39.3605 27.3133C40.6424 27.8558 42.0052 28.1314 43.4098 28.1314C44.7226 28.1314 46.0023 27.8901 47.2125 27.4139C47.5476 27.2818 47.9257 27.447 48.0577 27.7824C48.1891 28.1178 48.0245 28.4962 47.6894 28.6283C46.3266 29.1642 44.8867 29.436 43.4098 29.436Z" fill="#FFFDEA"/>
<path d="M36.5437 40.4743C36.4378 40.4743 36.3302 40.4711 36.2216 40.4634C35.5106 40.4156 34.925 40.2167 34.7626 40.1569C34.2771 39.978 33.8213 39.7258 33.4074 39.4078C31.3315 37.8124 30.7801 34.9183 32.1256 32.6755L32.1462 32.6428L32.6133 31.959L33.0772 31.2518L33.7219 30.3087C35.271 27.9223 36.0901 25.1505 36.0901 22.2913C36.0901 19.226 35.1586 16.2879 33.3966 13.7939C33.1885 13.4998 33.2586 13.0927 33.5525 12.8845C33.8463 12.6763 34.2532 12.7464 34.4612 13.0405C36.3796 15.7557 37.3937 18.9542 37.3937 22.2913C37.3937 25.406 36.5008 28.4268 34.811 31.0262L34.8028 31.0387L34.1576 31.9829L33.6937 32.6907L33.2342 33.3625C32.2424 35.0346 32.6562 37.1856 34.2016 38.3728C34.5112 38.6109 34.8517 38.799 35.214 38.9327C35.3004 38.9642 35.7583 39.1251 36.3096 39.1621C37.4122 39.2366 38.3818 38.7734 38.8614 38.4908C39.1715 38.3081 39.5713 38.4119 39.7538 38.7223C39.9363 39.0327 39.8326 39.4328 39.5224 39.6154C38.9586 39.947 37.856 40.4749 36.5442 40.4749L36.5437 40.4743Z" fill="#FFFDEA"/>
<path d="M22.6908 45.987C19.8723 45.987 18.1537 43.8681 17.8354 43.4398C17.6203 43.1506 17.6806 42.7424 17.9696 42.5271C18.2585 42.3118 18.6664 42.3722 18.8815 42.6614C19.038 42.8717 20.4736 44.7172 22.7543 44.6819C24.2828 44.6596 25.3832 43.8165 25.5885 43.6474C25.9411 43.3572 26.2485 43.0142 26.5016 42.6282C27.8161 40.624 27.3479 37.9332 25.4365 36.4954L25.2404 36.3634L23.9677 35.4942C19.6322 32.4946 17.044 27.5594 17.044 22.2915C17.044 18.9549 18.0581 15.7559 19.9766 13.0412C20.1846 12.7471 20.5914 12.6776 20.8853 12.8852C21.1791 13.0934 21.2492 13.5005 21.0412 13.7946C19.2791 16.2881 18.3481 19.2267 18.3481 22.292C18.3481 27.13 20.725 31.6629 24.7064 34.4189L24.908 34.5548L26.205 35.4414C28.6781 37.2891 29.287 40.7604 27.5917 43.3441C27.2664 43.8399 26.871 44.2813 26.4174 44.6547C26.0464 44.9602 24.688 45.9582 22.7744 45.986C22.7467 45.986 22.719 45.9865 22.6918 45.9865L22.6908 45.987Z" fill="#FFFDEA"/>
</svg>
