<svg width="236" height="236" viewBox="0 0 236 236" fill="none" xmlns="http://www.w3.org/2000/svg">
<g clip-path="url(#clip0_12_4)">
<path d="M122.017 0.0754295C121.899 0.0471434 121.781 0.0235717 121.663 0H114.026C113.672 0.0377147 113.319 0.0754295 112.965 0.113144C51.5843 2.69189 2.33831 52.1501 0.0895725 113.611C0.0565721 113.752 0.0282861 113.894 0 114.031V121.668C0.0330004 121.965 0.0660008 122.262 0.0942869 122.559C2.49389 185.613 54.3564 236 118 236C181.644 236 236 183.171 236 118C236 52.8289 185.326 2.19217 122.017 0.0754295ZM39.5628 39.5628C49.7505 29.3704 61.6165 21.3701 74.8213 15.7836C87.5076 10.4234 100.925 7.51466 114.757 7.12337C114.761 10.7581 114.804 14.1242 114.681 17.4808C114.667 17.9051 113.701 18.5887 113.121 18.6452C95.39 20.4272 82.6424 30.2189 72.9026 44.2818C65.8547 54.4601 56.2233 57.8638 44.5175 56.8078C37.8232 56.2044 34.4053 54.7477 29.6391 50.9243C32.6704 46.9407 35.9751 43.1457 39.5628 39.5628ZM103.772 109.175C99.3029 104.357 97.1768 98.5533 96.7713 92.1324C95.6163 73.7606 87.0786 62.927 69.5271 57.812C69.3763 57.7648 69.249 57.6281 69.4611 57.7696C72.648 53.9038 75.9103 50.1606 78.9275 46.2336C87.0315 35.7159 96.7902 27.7156 110.231 25.1887C111.607 24.9294 113.031 24.8917 114.615 24.7314V113.342C110.415 113.191 106.7 112.333 103.772 109.175ZM114.573 120.786V145.173C97.8839 121.993 69.9326 122.95 54.0829 142.015V120.786H114.573ZM15.7836 74.8213C18.5368 68.325 21.8698 62.1539 25.7592 56.3458C30.1435 58.5616 34.3534 60.6924 38.5398 62.8092C31.3127 68.193 27.0415 77.6217 17.8391 81.7278C15.9958 82.5529 14.1572 83.3779 12.3186 84.2029C13.3322 81.0348 14.4825 77.9045 15.7836 74.8213ZM10.3621 91.067C10.5931 90.9161 10.8383 90.7982 11.0551 90.7464C20.5121 88.5966 28.1493 83.5334 34.2261 76.1084C37.8562 71.6674 41.6088 67.4858 47.1434 65.3502C62.7715 59.3347 82.1333 64.1386 89.1859 82.2417C90.1429 84.6885 90.3692 87.5171 90.4871 90.1901C90.902 99.3972 93.4571 107.676 100.208 114.299C100.302 114.394 100.298 114.592 100.392 114.922C69.2395 114.922 38.2616 114.922 7.11394 114.926C7.33552 106.813 8.41982 98.8362 10.3621 91.067ZM47.794 180.352C47.7469 187.056 46.408 193.604 43.5888 200.27C42.2217 199.03 40.8781 197.753 39.5628 196.437C29.3704 186.25 21.3701 174.384 15.7836 161.174C10.3574 148.337 7.43923 134.745 7.10451 120.73C20.8468 120.73 34.146 120.73 47.5819 120.725C47.6667 121.093 47.8317 121.479 47.8317 121.866C47.8459 141.364 47.9401 160.858 47.794 180.352ZM114.78 227.41C114.775 227.825 114.714 228.24 114.643 228.872C100.849 228.466 87.4699 225.562 74.8213 220.216C65.4775 216.261 56.8125 211.099 48.9302 204.81C50.3822 199.53 52.3245 194.566 52.8714 189.451C53.7624 181.144 54.1725 172.705 53.8425 164.356C53.2815 150.27 61.2016 140.242 73.3835 135.627C82.7509 132.077 91.7647 133.468 99.9063 139.356C109.67 146.423 114.898 155.842 114.823 168.128C114.695 187.89 114.785 207.653 114.78 227.41ZM226.321 93.971C227.83 100.802 228.688 107.784 228.881 114.87H169.655V90.4541C176.585 100.915 185.981 105.521 197.507 105.757C208.699 105.983 218.632 102.726 226.321 93.971ZM120.904 7.10923C134.858 7.4628 148.389 10.3763 161.174 15.7836C174.384 21.3701 186.25 29.3704 196.437 39.5628C206.63 49.7505 214.625 61.6165 220.216 74.8213C221.739 78.4278 223.059 82.0908 224.186 85.8057C224.026 86.7722 223.54 87.6585 222.795 88.6296C213.192 101.146 195.325 102.113 184.963 96.5545C175.897 91.694 170.909 83.5712 169.523 73.3363C168.811 68.0563 168.401 62.7149 167.453 57.4773C166.93 54.6062 165.973 51.6456 164.521 49.1329C155.173 32.9485 142.255 21.5068 122.992 18.9328C121.342 18.7065 120.833 18.1832 120.88 16.5898C120.961 13.6197 120.913 10.645 120.904 7.10923ZM121.036 24.8729C122.667 25.1039 124.228 25.2217 125.736 25.5706C134.967 27.6873 143.085 31.8124 149.317 39.1338C152.165 42.4857 155.154 45.7527 157.633 49.3686C161.386 54.8514 162.461 61.2346 162.635 67.7545C163.055 83.4062 163.394 99.0625 163.772 114.907H121.036V24.8729ZM131.756 120.829C128.273 124.044 124.737 127.311 121.163 130.616V120.829H131.756ZM129.079 131.521C141.435 118.599 163.517 119.226 175.256 132.775C179.112 137.235 180.239 142.604 180.243 148.516H121.06C121.795 141.793 124.595 136.216 129.079 131.521ZM161.174 220.216C148.45 225.595 134.976 228.509 121.093 228.881V173.101C122.422 174.289 123.667 175.397 124.916 176.505C133.864 184.482 144.202 188.932 156.318 188.857C167.6 188.781 178.414 193.137 187.711 204.291C179.659 210.816 170.772 216.153 161.174 220.216ZM196.437 196.437C195.207 197.668 193.948 198.87 192.67 200.034C190.45 197.936 188.286 195.768 185.981 193.764C177.509 186.396 167.656 182.756 156.408 182.733C144.056 182.709 133.901 177.806 125.911 168.448C122.648 164.625 121.281 160.057 121.159 154.734H186.184C186.664 147.936 186.57 141.402 183.907 135.137C181.21 128.796 176.241 124.581 170.207 120.786H228.895C228.551 134.778 225.638 148.356 220.216 161.174C214.625 174.384 206.63 186.25 196.437 196.437Z" fill="black"/>
<path d="M47.794 180.352C47.7468 187.056 46.408 193.604 43.5888 200.27C42.2216 199.03 40.878 197.753 39.5627 196.437C29.3703 186.25 21.3701 174.384 15.7836 161.174C10.3574 148.337 7.43921 134.745 7.10449 120.73C20.8468 120.73 34.146 120.73 47.5818 120.725C47.6667 121.093 47.8317 121.479 47.8317 121.866C47.8458 141.364 47.9401 160.858 47.794 180.352Z" fill="#DF729F"/>
<path d="M114.573 120.786V145.173C97.8839 121.993 69.9326 122.95 54.0829 142.015V120.786H114.573Z" fill="#8760D4"/>
<path d="M114.78 227.41C114.775 227.825 114.714 228.24 114.643 228.872C100.849 228.466 87.4699 225.562 74.8213 220.216C65.4775 216.261 56.8126 211.099 48.9302 204.81C50.3822 199.53 52.3245 194.566 52.8714 189.451C53.7624 181.144 54.1725 172.705 53.8425 164.356C53.2815 150.27 61.2016 140.242 73.3835 135.627C82.7509 132.077 91.7647 133.468 99.9064 139.356C109.67 146.423 114.898 155.842 114.823 168.128C114.695 187.89 114.785 207.653 114.78 227.41Z" fill="#EFB63B"/>
<path d="M187.711 204.291C179.659 210.816 170.772 216.153 161.174 220.216C148.45 225.595 134.976 228.509 121.093 228.881V173.101C122.422 174.289 123.667 175.397 124.916 176.505C133.864 184.482 144.202 188.932 156.318 188.857C167.6 188.781 178.414 193.137 187.711 204.291Z" fill="#E57144"/>
<path d="M228.896 120.786C228.551 134.778 225.638 148.356 220.216 161.174C214.625 174.384 206.63 186.25 196.437 196.437C195.207 197.668 193.948 198.87 192.671 200.034C190.45 197.936 188.286 195.768 185.981 193.764C177.509 186.396 167.656 182.756 156.408 182.733C144.056 182.709 133.901 177.806 125.911 168.448C122.648 164.625 121.281 160.057 121.159 154.734H186.184C186.664 147.936 186.57 141.402 183.907 135.137C181.21 128.796 176.241 124.581 170.207 120.786H228.896Z" fill="#8760D4"/>
<path d="M131.756 120.829C128.273 124.044 124.737 127.311 121.163 130.616V120.829H131.756Z" fill="#8760D4"/>
<path d="M180.243 148.516H121.06C121.795 141.793 124.595 136.216 129.079 131.521C141.435 118.599 163.517 119.226 175.256 132.775C179.112 137.235 180.239 142.604 180.243 148.516Z" fill="#DF729F"/>
<path d="M228.881 114.87H169.655V90.4541C176.585 100.915 185.981 105.521 197.507 105.757C208.699 105.983 218.632 102.726 226.321 93.971C227.83 100.802 228.688 107.784 228.881 114.87Z" fill="#E57144"/>
<path d="M163.772 114.907H121.036V24.8729C122.667 25.1039 124.228 25.2217 125.736 25.5706C134.967 27.6873 143.085 31.8124 149.317 39.1338C152.165 42.4857 155.154 45.7527 157.633 49.3686C161.386 54.8514 162.461 61.2346 162.635 67.7545C163.055 83.4062 163.394 99.0625 163.772 114.907Z" fill="#DF729F"/>
<path d="M224.186 85.8057C224.026 86.7722 223.54 87.6585 222.795 88.6296C213.192 101.146 195.325 102.113 184.963 96.5544C175.897 91.694 170.909 83.5711 169.523 73.3363C168.811 68.0562 168.401 62.7149 167.453 57.4773C166.93 54.6062 165.973 51.6456 164.521 49.1329C155.173 32.9485 142.255 21.5068 122.992 18.9328C121.342 18.7065 120.833 18.1832 120.88 16.5898C120.961 13.6197 120.913 10.645 120.904 7.10922C134.858 7.4628 148.389 10.3763 161.174 15.7836C174.384 21.3701 186.25 29.3703 196.437 39.5628C206.63 49.7505 214.625 61.6165 220.216 74.8213C221.739 78.4278 223.059 82.0908 224.186 85.8057Z" fill="#8760D4"/>
<path d="M100.392 114.922C69.2396 114.922 38.2616 114.922 7.11395 114.926C7.33553 106.813 8.41983 98.8362 10.3621 91.067C10.5931 90.9161 10.8383 90.7982 11.0551 90.7464C20.5121 88.5966 28.1493 83.5334 34.2261 76.1083C37.8562 71.6674 41.6088 67.4858 47.1434 65.3502C62.7715 59.3347 82.1333 64.1386 89.1859 82.2417C90.143 84.6884 90.3692 87.5171 90.4871 90.1901C90.902 99.3972 93.4571 107.676 100.208 114.299C100.302 114.394 100.298 114.592 100.392 114.922Z" fill="#EFB63B"/>
<path d="M38.5398 62.8092C31.3127 68.193 27.0415 77.6217 17.8391 81.7278C15.9958 82.5529 14.1572 83.3779 12.3186 84.2029C13.3322 81.0348 14.4825 77.9045 15.7836 74.8213C18.5368 68.325 21.8699 62.1539 25.7592 56.3458C30.1435 58.5616 34.3534 60.6924 38.5398 62.8092Z" fill="#DF729F"/>
<path d="M114.615 24.7314V113.342C110.415 113.191 106.7 112.333 103.772 109.175C99.3029 104.357 97.1768 98.5533 96.7713 92.1324C95.6163 73.7606 87.0786 62.9271 69.5271 57.812C69.3763 57.7648 69.249 57.6281 69.4611 57.7696C72.648 53.9038 75.9104 50.1606 78.9275 46.2336C87.0315 35.7159 96.7902 27.7156 110.231 25.1887C111.607 24.9294 113.031 24.8917 114.615 24.7314Z" fill="#E57144"/>
<path d="M114.681 17.4808C114.667 17.9051 113.701 18.5886 113.121 18.6452C95.39 20.4272 82.6425 30.2189 72.9026 44.2818C65.8547 54.4601 56.2233 57.8638 44.5176 56.8078C37.8232 56.2044 34.4053 54.7477 29.6391 50.9243C32.6704 46.9407 35.9752 43.1457 39.5628 39.5628C49.7505 29.3703 61.6165 21.3701 74.8214 15.7836C87.5077 10.4234 100.925 7.51466 114.757 7.12337C114.761 10.7581 114.804 14.1242 114.681 17.4808Z" fill="#8760D4"/>
</g>
<defs>
<clipPath id="clip0_12_4">
<rect width="236" height="236" fill="white"/>
</clipPath>
</defs>
</svg>
