<svg width="49" height="54" viewBox="0 0 49 54" fill="none" xmlns="http://www.w3.org/2000/svg">
<g clip-path="url(#clip0_189_414)">
<path d="M21.0638 16.0314C23.187 17.449 24.8869 19.3572 26.1568 21.7626C27.467 24.168 28.3673 26.5196 28.8645 28.8242C29.3953 31.0885 29.6641 32.8757 29.6641 34.1859C29.6641 36.3763 29.3079 38.9294 28.6025 41.832C27.9306 44.7346 26.4591 47.4423 24.1948 49.9552C21.9306 52.4345 18.6585 53.6708 14.3785 53.6708C8.50616 53.6708 4.32699 50.2576 1.85442 43.4244C0.759238 40.3471 0.141097 36.9138 0 33.1243C0 30.0134 0.658455 27.0571 1.96193 24.262C3.27212 21.4334 4.98544 19.1691 7.10862 17.4692C9.2654 15.7693 11.4826 14.9227 13.7469 14.9227C15.7962 14.9227 17.3214 14.9765 18.3091 15.084C19.3371 15.1915 20.2576 15.5073 21.0705 16.0381H21.0638V16.0314ZM14.1097 50.6943C17.8589 50.6943 20.654 49.1355 22.495 46.0246C24.3359 42.8735 25.2564 38.9295 25.2564 34.1859C25.2564 31.2833 24.813 28.6159 23.9261 26.1702C23.0795 23.6909 21.8567 21.729 20.2643 20.2777C18.7055 18.7928 16.9048 18.047 14.8488 18.047H13.4177C12.6719 18.047 12.0202 18.168 11.4558 18.4166C10.8914 18.6652 10.374 19.0347 9.91713 19.5319C8.74804 20.701 7.76036 21.776 6.94737 22.7704C6.16797 23.7245 5.37514 25.1624 4.56215 27.0705C3.78275 28.9787 3.39306 31.196 3.39306 33.7088C3.39306 36.6786 3.74916 39.4602 4.45465 42.0403C5.20045 44.5868 6.36282 46.6764 7.95521 48.3023C9.54759 49.8947 11.5969 50.6943 14.1097 50.6943Z" fill="#201E1E"/>
<path d="M24.7189 0V11.7581H4.56216V0L9.60136 5.03919L14.6406 0L19.6797 5.03919L24.7189 0Z" fill="#201E1E"/>
<path d="M9.9373 34.9384C8.27101 34.9384 6.91379 33.5812 6.91379 31.9149C6.91379 30.2486 8.27101 28.8914 9.9373 28.8914C11.6036 28.8914 12.9608 30.2486 12.9608 31.9149C12.9608 33.5812 11.6036 34.9384 9.9373 34.9384ZM9.9373 29.5633C8.64055 29.5633 7.58568 30.6181 7.58568 31.9149C7.58568 33.2116 8.64055 34.2665 9.9373 34.2665C11.2341 34.2665 12.2889 33.2116 12.2889 31.9149C12.2889 30.6181 11.2341 29.5633 9.9373 29.5633Z" fill="#201E1E"/>
<path d="M9.93728 33.5946C10.4939 33.5946 10.9451 33.1434 10.9451 32.5868C10.9451 32.0302 10.4939 31.5789 9.93728 31.5789C9.38067 31.5789 8.92944 32.0302 8.92944 32.5868C8.92944 33.1434 9.38067 33.5946 9.93728 33.5946Z" fill="#201E1E"/>
<path d="M7.28801 32.9851L5.94193 33.6583L6.24246 34.2592L7.58855 33.586L7.28801 32.9851Z" fill="#201E1E"/>
<path d="M7.07502 31.5789H5.56998V32.2508H7.07502V31.5789Z" fill="#201E1E"/>
<path d="M7.58565 35.6103L7.07501 35.1736L8.04926 34.0314L8.55989 34.4681L7.58565 35.6103Z" fill="#201E1E"/>
<path d="M18.6719 37.626C17.0056 37.626 15.6484 36.2688 15.6484 34.6025C15.6484 32.9362 17.0056 31.5789 18.6719 31.5789C20.3382 31.5789 21.6954 32.9362 21.6954 34.6025C21.6954 36.2688 20.3382 37.626 18.6719 37.626ZM18.6719 32.2508C17.3751 32.2508 16.3203 33.3057 16.3203 34.6025C16.3203 35.8992 17.3751 36.9541 18.6719 36.9541C19.9686 36.9541 21.0235 35.8992 21.0235 34.6025C21.0235 33.3057 19.9686 32.2508 18.6719 32.2508Z" fill="#201E1E"/>
<path d="M18.6719 34.9384C18.8574 34.9384 19.0078 34.788 19.0078 34.6025C19.0078 34.4169 18.8574 34.2665 18.6719 34.2665C18.4863 34.2665 18.3359 34.4169 18.3359 34.6025C18.3359 34.788 18.4863 34.9384 18.6719 34.9384Z" fill="#201E1E"/>
<path d="M21.3429 35.6962L21.0423 36.2972L22.3884 36.9704L22.689 36.3694L21.3429 35.6962Z" fill="#201E1E"/>
<path d="M23.0459 34.2665H21.5409V34.9384H23.0459V34.2665Z" fill="#201E1E"/>
<path d="M21.0235 38.2979L20.0493 37.1557L20.5599 36.7189L21.5341 37.8611L21.0235 38.2979Z" fill="#201E1E"/>
<path d="M16.9921 46.0246H15.6484V45.3527H16.9921V46.0246ZM14.3046 46.0246H12.9608V45.3527H14.3046V46.0246ZM11.617 46.0246H10.2732V45.3527H11.617V46.0246Z" fill="#201E1E"/>
<path d="M12.2889 31.243H7.58566V31.9149H12.2889V31.243Z" fill="#201E1E"/>
<path d="M17.3147 53.4356C17.3147 53.4356 31.3908 44.0694 25.411 23.9933C25.411 15.5879 31.3908 11.355 36.9406 11.355C42.4905 11.355 47.8051 16.6562 47.8051 22.2195C47.8051 27.7828 42.0067 50.4524 17.3147 53.4289V53.4356Z" fill="#201E1E"/>
<path d="M47.8052 9.89026C47.8052 9.89026 49.028 21.4334 46.972 27.4535C43.9552 25.6461 25.2699 20.0896 27.467 16.5084C29.6641 12.9272 33.7828 4.48152 33.7828 4.48152L34.8779 10.3068L40.495 6.31579L43.9149 13.888L47.8119 9.89026H47.8052Z" fill="#201E1E"/>
</g>
<defs>
<clipPath id="clip0_189_414">
<rect width="48.168" height="53.6708" fill="white"/>
</clipPath>
</defs>
</svg>
